<svg xmlns="http://www.w3.org/2000/svg" xmlns:xlink="http://www.w3.org/1999/xlink" height="128" width="128"><!--runner derived by freepik from flaticon--><defs><linearGradient id="b"><stop offset="0" stop-color="#95cab8"/><stop offset="1" stop-color="#e3eae9"/></linearGradient><linearGradient id="c"><stop offset="0" stop-color="#e1e8e7"/><stop offset="1" stop-color="#58ab8f"/></linearGradient><linearGradient id="a"><stop offset="0"/><stop offset="1" stop-color="red"/></linearGradient><radialGradient gradientUnits="userSpaceOnUse" r="58.5" fy="988.362" fx="64" cy="988.362" cx="64" id="d" xlink:href="#b"/><radialGradient gradientUnits="userSpaceOnUse" r="58.5" fy="988.362" fx="64" cy="988.362" cx="64" id="e" xlink:href="#c" gradientTransform="scale(1.4902) rotate(-15 -1181.304 905.757)"/></defs><g transform="matrix(.8843 0 0 .8843 7.405 -810.006)"><circle cx="64" cy="988.362" r="57.5" fill="url(#d)" stroke="#175246" stroke-width="6"/><circle transform="translate(4.72 72.89) scale(.92625)" cx="64" cy="988.362" r="52.287" fill="url(#e)"/><g fill="#c83737" stroke="#521717" stroke-width="23.13"><path d="M78.169 968.572a8.65 8.65 0 0 0 0-17.3 8.65 8.65 0 1 0 0 17.3z" stroke-width="4.5233028"/><path d="M92.397 966.082c-4.967 6.957-11.618 7.762-18.774 3.514-.488-.29-2.65-1.48-3.128-1.764-11.513-6.835-23.012-4.155-30.725 6.645-3.277 4.593 4.303 8.947 7.543 4.407 3.985-5.58 9.052-7.194 14.593-5.427-2.837 4.925-5.318 9.82-8.818 16.775-3.501 6.955-11.232 12.508-18.66 8.165-5.359-3.133-10.192 4.567-4.849 7.69 10.14 5.926 22.03 2.287 28.1-5.417.211.112.434.214.678.3 4.958 1.727 11.458 6.326 13.439 7.956 1.98 1.63 5.382 9.935 7.402 14.107 2.45 5.063 10.365 1.375 7.905-3.709-2.29-4.734-6.133-14.182-9.131-16.572-2.405-1.917-7.074-5.485-11.035-7.51a346.466 346.466 0 0 1 8.406-15.367c9.36 2.868 18.258-.51 24.595-9.387 3.28-4.593-4.298-8.947-7.541-4.406z" stroke-width="4.5233028"/></g></g></svg>
